<?xml version="1.0" encoding="UTF-8"?>
<!DOCTYPE svg PUBLIC "-//W3C//DTD SVG 1.1//EN" "http://www.w3.org/Graphics/SVG/1.1/DTD/svg11.dtd">
<!-- Creator: CorelDRAW -->
<svg xmlns="http://www.w3.org/2000/svg" xml:space="preserve" width="506px" height="578px" style="shape-rendering:geometricPrecision; text-rendering:geometricPrecision; image-rendering:optimizeQuality; fill-rule:evenodd; clip-rule:evenodd"
viewBox="0 0 12.1382 13.8723"
 xmlns:xlink="http://www.w3.org/1999/xlink">
 <defs>
  <style type="text/css">
   <![CDATA[
    .str0 {stroke:#FEFEFE;stroke-width:0.141682}
    .fil0 {fill:none}
    .fil2 {fill:#FEFEFE}
    .fil1 {fill:#1188FF}
   ]]>
  </style>
 </defs>
 <g id="Layer_x0020_1">
  <metadata id="CorelCorpID_0Corel-Layer"/>
  <rect class="fil0" x="1.28037e-005" width="12.1382" height="13.8723"/>
  <circle class="fil1 str0" cx="5.99202" cy="3.74605" r="3.03036"/>
  <path class="fil2" d="M4.46242 1.92589l0.874887 0c0,0 -0.0202039,0.208641 0.10765,0.235561 0.127882,0.0269196 0.518217,0.00671574 0.518217,0.00671574 0.0437515,-0.0033437 0.0975623,-0.0269196 0.111022,-0.0706711 0.0134598,-0.0437231 0.0202039,-0.164861 0.0202039,-0.164861l0.709998 -0.00674407c0,0 -0.0639553,0.104335 -0.0841309,0.144686 -0.0202039,0.0404078 -0.0370074,0.141342 -0.0336637,0.222101 0.00337204,0.0807588 0.0470952,0.235532 0.0470952,0.235532l-2.01891 0.00674407 0 1.66562 1.85572 -0.00167185 -0.0033437 0.252364 -0.508101 -0.00674407 0.477809 0.454261c0,0 0.0470952,0.0807872 0.0168035,0.141342 -0.0302633,0.060555 -0.141314,0.063927 -0.185037,0.0235476 -0.0437515,-0.0403794 -0.521589,-0.467721 -0.521589,-0.467721l-0.0100878 0.44083c0,0 -0.0117596,0.112694 -0.114394,0.114366 -0.102635,0.00170019 -0.124482,-0.10765 -0.124482,-0.10765l-0.00674407 -0.42397 -0.52156 0.464321c0,0 -0.0774151,0.0420513 -0.15143,-0.0285915 -0.0740148,-0.0706427 -0.00671574,-0.14973 -0.00671574,-0.14973l0.487897 -0.444174 -0.747005 -0.0100878c0,0 -0.0841309,-0.0202039 -0.124482,-0.063927 -0.0403794,-0.0437515 -0.0673274,-0.107678 -0.0673274,-0.161518 0,-0.0538392 0.00170019,-2.29993 0.00170019,-2.29993zm2.75487 0.0219041c0.186369,0 0.337459,0.152138 0.337459,0.339839 0,0.187701 -0.15109,0.339867 -0.337459,0.339867 -0.186397,0 -0.337459,-0.152167 -0.337459,-0.339867 0,-0.187701 0.151062,-0.339839 0.337459,-0.339839zm-1.17316 0.964941l-0.298893 -0.227768 0.0176253 -0.0257295 0.308045 0.193425c0.0288465,-0.0380275 0.0778685,-0.0694809 0.127826,-0.0620001 0.0672707,0.0100878 0.208613,0.0807588 0.248992,0.100963 0.0403794,0.0201755 0.15143,0.0773585 0.169934,0.0841025 0.0185037,0.00674407 0.0336353,0.00337204 0.0571829,-0.00841592 0.0235759,-0.0117596 0.307904,-0.129526 0.31632,-0.127826l0.0387076 0 0.174977 0.190109 0.0319635 0.00167185 0.169905 -0.174977 0.0370357 -0.00167185c0,0 0.191781,0.131198 0.205269,0.277612 0.0134598,0.146358 0.0117596,1.05321 0.0117596,1.05321l-0.205241 0.00841592 -0.0387076 0.864771c0,0 -0.0168318,0.0353355 -0.0235759,0.0420513 -0.00671574,0.00674407 -0.0336353,0.0285915 -0.0336353,0.0285915l-0.265852 0c0,0 -0.0319352,-0.0100878 -0.045395,-0.0235476 -0.0134598,-0.0134598 -0.0252478,-0.048767 -0.0252478,-0.048767l-0.0386792 -0.858056 -0.213685 -0.00671574 0.00170019 -0.911923c0,0 -0.0387076,0.00337204 -0.0639553,0.0219041 -0.0252478,0.0184754 -0.0555111,0.0268913 -0.0807305,0.0268913 -0.0252478,0 -0.516545,-0.240576 -0.55188,-0.270868 -0.0311984,-0.0267496 -0.0413712,-0.0941336 -0.0317651,-0.145451zm-0.528475 -1.17191l0.403794 0c0.0296116,0 0.0538392,0.0241993 0.0538392,0.0538392l0 0.198553c0,0.0296116 -0.0242277,0.0538109 -0.0538392,0.0538109l-0.403794 0c-0.0296399,0 -0.0538392,-0.0241993 -0.0538392,-0.0538109l0 -0.198553c0,-0.0296399 0.0241993,-0.0538392 0.0538392,-0.0538392z"/>
  <circle class="fil1 str0" cx="8.88752" cy="6.65952" r="3.03036"/>
  <circle class="fil1 str0" cx="5.99202" cy="10.5621" r="3.03036"/>
  <circle class="fil1 str0" cx="3.25844" cy="6.65952" r="3.03036"/>
  <path class="fil2" d="M5.55519 10.5626l0.783956 0c0.0937369,0 0.170415,0.0766784 0.170415,0.170415l0 0.606711c0,0.0937369 -0.0766784,0.170415 -0.170415,0.170415l-0.783956 0c-0.0937369,0 -0.170415,-0.0766784 -0.170415,-0.170415l0 -0.606711c0,-0.0937369 0.0766784,-0.170415 0.170415,-0.170415zm0.391978 1.85269c0.106035,0 0.191951,0.0859161 0.191951,0.191951 0,0.106007 -0.0859161,0.191923 -0.191951,0.191923 -0.106007,0 -0.191923,-0.0859161 -0.191923,-0.191923 0,-0.106035 0.0859161,-0.191951 0.191923,-0.191951zm-0.850036 -3.06198l1.70007 0c0.1257,0 0.228505,0.102805 0.228505,0.228505l0 3.12596c0,0.1257 -0.102805,0.228505 -0.228505,0.228505l-1.70007 0c-0.1257,0 -0.228505,-0.102805 -0.228505,-0.228505l0 -3.12596c0,-0.1257 0.102805,-0.228505 0.228505,-0.228505zm0.1051 2.87003l1.48987 0 0 -2.51356 -1.48987 0 0 2.51356z"/>
  <path class="fil2" d="M9.79894 5.19716l-0.248737 0c0.00167185,0.0123263 0.00252194,0.0248794 0.00252194,0.0376025l0 0c0,0.156757 -0.128279,0.285008 -0.285036,0.285008l-0.661004 0c-0.156786,0 -0.285008,-0.128251 -0.285008,-0.285008l0 0c0,-0.0127231 0.00087843,-0.0252761 0.00249361,-0.0376025l-0.248737 0c-0.183932,0 -0.334398,0.150523 -0.334398,0.334427 0,0.772905 0,1.52779 0,2.30225 0,0.183932 0.150495,0.334398 0.334398,0.334398l1.72351 0c0.183903,0 0.334398,-0.150466 0.334398,-0.334398l0 -0.973413 -0.263642 0.242702 0 0.730088c0,0.0427597 -0.0350522,0.0778119 -0.0778402,0.0778119l-1.70934 0c-0.0428164,0 -0.0778119,-0.0350522 -0.0778119,-0.0778119 0,-0.187616 -0.0298383,-1.99069 0.000311701,-1.97341 0.00348538,-0.0396427 0.0370074,-0.0709828 0.0775002,-0.0709828l1.70934 0c0.042788,0 0.0778402,0.0349955 0.0778402,0.0778119l0 0.267779 0.263642 -0.238706 0 -0.364123c0,-0.183932 -0.150495,-0.334427 -0.334398,-0.334427zm-0.150353 1.94875l-0.439271 0.202634 0.192688 -0.455168c0.00198355,-0.0121563 0.0033437,-0.0273447 0.00926601,-0.033267l1.13839 -1.14615c0.0146499,-0.0147349 0.0386509,-0.01482 0.0533575,-0.000198355l0.224708 0.223206c0.0147349,0.0146216 0.01482,0.0386226 0.000198355,0.0533292l-1.13842 1.14618c-0.0082459,0.00827424 -0.0333803,0.0118446 -0.0409178,0.00943603zm-0.368515 -1.74768l-0.685742 0c-0.085151,0 -0.154802,-0.069651 -0.154802,-0.154774l0 -2.83364e-005c0,-0.0851227 0.069651,-0.154774 0.154802,-0.154774l0.0809572 0 -0.000368374 -0.000623402c0,0 0.0699343,-0.00337204 0.0878713,-0.0702744 0.0179086,-0.0669307 0.0250777,-0.184442 0.174382,-0.184442 0.149333,0 0.156502,0.117511 0.174439,0.184442 0.0179086,0.0669023 0.087843,0.0702744 0.087843,0.0702744l-0.000340037 0.000623402 0.0809572 0c0.085151,0 0.15483,0.069651 0.15483,0.154774l0 2.83364e-005c0,0.0851227 -0.0696793,0.154774 -0.15483,0.154774zm-0.342899 -0.465823c-0.045395,0 -0.082204,0.036809 -0.082204,0.082204 0,0.045395 0.036809,0.082204 0.082204,0.082204 0.045395,0 0.082204,-0.036809 0.082204,-0.082204 0,-0.045395 -0.036809,-0.082204 -0.082204,-0.082204z"/>
  <path class="fil2" d="M5.07568 7.57552l0 0.0931985c0,0.177754 -0.145394,0.323149 -0.323149,0.323149l-3.49247 0c-0.177754,0 -0.323149,-0.145394 -0.323149,-0.323149l0 -0.0931985 4.13876 0zm-3.22185 -1.77822l2.30494 0 0 1.55972 -2.30494 0 0 -1.55972zm0.190421 1.17846l0.485261 -0.242617 0 0.511246 -0.485261 -0.268629zm1.92804 0l-0.485261 -0.242617 0 0.511246 0.485261 -0.268629zm-0.554629 -0.946012l0.459249 0 0.0708411 0 0 0.0708411 0 0.459249 0 0.0708411 -0.0708411 0 -0.459249 0 -0.0708411 0 0 -0.0708411 0 -0.459249 0 -0.0708411 0.0708411 0zm0.388408 0.141682l-0.317566 0 0 0.317566 0.317566 0 0 -0.317566zm-1.04695 -0.141682l0.459249 0 0.0708411 0 0 0.0708411 0 0.459249 0 0.0708411 -0.0708411 0 -0.459249 0 -0.0708411 0 0 -0.0708411 0 -0.459249 0 -0.0708411 0.0708411 0zm0.388408 0.141682l-0.317566 0 0 0.317566 0.317566 0 0 -0.317566zm-1.04697 -0.141682l0.459249 0 0.0708411 0 0 0.0708411 0 0.459249 0 0.0708411 -0.0708411 0 -0.459249 0 -0.0708411 0 0 -0.0708411 0 -0.459249 0 -0.0708411 0.0708411 0zm0.388408 0.141682l-0.317566 0 0 0.317566 0.317566 0 0 -0.317566zm-1.02385 -0.814446l3.08235 0c0.129894,0 0.236128,0.106233 0.236128,0.236128l0 1.88919 -0.229922 0 0 -1.9016 -3.09474 0 0 1.9016 -0.22995 0 0 -1.88919c0,-0.129894 0.106233,-0.236128 0.236128,-0.236128z"/>
 </g>
</svg>
